<svg xmlns="http://www.w3.org/2000/svg" viewBox="0 0 1920 813">
  <title>ChicagoSkylineBlue</title>
  <g id="Layer_2" data-name="Layer 2">
    <polygon points="856.28 392.21 904.89 392.21 904.89 380.7 927.91 380.7 927.91 392.21 975.23 392.21 975.23 813 856.28 813 856.28 392.21" style="fill:#264488"/>
    <rect x="921.51" y="706.84" width="15.35" height="104.88" style="fill:#3056ad"/>
    <rect x="444.45" y="636.5" width="135.57" height="176.5" style="fill:#2b4d9a"/>
    <rect x="340.85" y="671.12" width="70.34" height="141.88" style="fill:#2b4d9a"/><rect x="604.32" y="581.5" width="49.88" height="230.86" style="fill:#2b4d9a"/><rect x="654.2" y="661.35" width="92.09" height="151.65" style="fill:#2b4d9a"/><rect x="775.71" y="639.68" width="80.58" height="173.32" style="fill:#2b4d9a"/><polygon points="1737.94 812.77 1737.94 490.69 1750.3 431.86 1789.95 431.86 1804.02 489.42 1804.02 813 1737.94 812.77" style="fill:#2b4d9a"/><polygon points="995.69 223.38 962.92 812.36 1135.1 812.36 1095.45 214.43 1087.78 214.43 1087.78 195.25 1081.39 195.25 1081.39 163.27 1067.32 163.27 1067.32 193.97 1025.11 193.97 1025.11 160.72 1011.04 160.72 1011.04 193.97 1004.65 193.97 1004.65 215.71 995.69 215.71 995.69 223.38" style="fill:#2b4d9a"/><polygon points="823.03 600.69 823.03 812.36 863.96 812.36 863.96 600.69 842.22 578.95 823.03 600.69" style="fill:#3056ad"/><polygon points="572.35 627.55 572.35 812.36 615.83 812.36 615.83 613.48 580.02 613.48 572.35 627.55" style="fill:#3056ad"/><polygon points="0 812.36 0 626.91 42.21 626.91 42.21 615.4 66.51 615.4 66.51 625.63 79.3 625.63 79.3 812.36 0 812.36" style="fill:#3056ad"/><polygon points="144.88 812.36 144.88 605.8 163.07 605.8 163.07 590.46 192.49 590.46 192.49 604.52 209.12 604.52 209.12 813 144.88 812.36" style="fill:#3056ad"/><polygon points="290.97 622.43 290.97 813 340.85 813 340.85 651.85 324.22 651.85 324.22 622.43 290.97 622.43" style="fill:#3056ad"/><polygon points="384.34 601.97 384.34 812.36 444.45 812.36 444.45 605.8 423.99 594.29 397.13 594.29 384.34 601.97" style="fill:#3056ad"/><polygon points="49.07 812.36 49.07 709.4 101.68 709.4 101.68 733.7 163.07 733.7 163.07 813 49.07 812.36" style="fill:#355fbf"/><polyline points="270.51 662.08 296.09 636.5 296.09 662.08 312.07 678.07 312.07 813 270.51 813" style="fill:#3056ad"/><rect x="280.74" y="719.63" width="44.76" height="93.37" style="fill:#355fbf"/><rect x="372.83" y="630.1" width="38.37" height="182.9" style="fill:#355fbf"/><polygon points="467.47 622.43 467.47 813 561.93 813 561.93 622.43 550.61 622.43 550.61 605.8 527.58 605.8 527.58 596.85 512.24 596.85 512.24 604.52 477.7 604.52 477.7 622.43 467.47 622.43" style="fill:#3056ad"/><rect x="622.23" y="713.24" width="111.27" height="99.76" style="fill:#355fbf"/><polygon points="718.15 507.32 718.15 812.36 775.71 812.36 775.71 507.32 756.52 498.37 733.5 498.37 718.15 507.32" style="fill:#3056ad"/><rect x="493.05" y="763.12" width="103.6" height="49.24" style="fill:#355fbf"/><rect x="760.36" y="703.01" width="86.03" height="109.35" style="fill:#355fbf"/><line x1="1073.59" y1="163.27" x2="1073.71" y2="25.14" style="fill:#2b4d9a;stroke:#2b4d9a;stroke-miterlimit:10;stroke-width:4px"/><line x1="1018.37" y1="160.71" x2="1018.72" y2="-0.44" style="fill:#2b4d9a;stroke:#2b4d9a;stroke-miterlimit:10;stroke-width:4px"/><rect x="936.86" y="703.01" width="49.79" height="109.35" style="fill:#355fbf"/><rect x="881.86" y="658.24" width="39.65" height="154.12" style="fill:#355fbf"/><polygon points="996.97 655.68 996.97 812.36 1045.6 812.36 1045.6 670.24 1045.6 655.68 1035.34 655.68 1035.34 616.03 1018.72 599.41 1004.01 614.12 1004.01 655.68 996.97 655.68" style="fill:#3056ad"/><rect x="1034.8" y="669.75" width="29.96" height="142.61" style="fill:#355fbf"/><polygon points="1211.02 751.23 1211.02 711.96 1064.76 711.96 1064.76 754.17 1211.02 751.23" style="fill:#355fbf"/><polyline points="1094.57 711.96 1094.57 681.26 1199.05 681.26 1199.05 711.96" style="fill:#355fbf"/><rect x="1108.97" y="587.9" width="81.13" height="93.37" style="fill:#355fbf"/><polyline points="1109.52 587.9 1109.52 561.04 1184.98 561.04 1184.98 588.03" style="fill:#355fbf"/><polygon points="1121.78 561.04 1135.1 548.25 1159.4 548.25 1175 561.04 1121.78 561.04" style="fill:#355fbf"/><rect x="1142.78" y="508.6" width="6.76" height="39.65" style="fill:#355fbf"/><polygon points="1190.1 462.56 1190.1 812.36 1236.89 812.36 1236.89 466.39 1219.52 458.72 1219.52 444.65 1199.05 444.65 1199.05 463.84 1190.1 462.56" style="fill:#2b4d9a"/><line x1="1206.5" y1="444.65" x2="1206.73" y2="380.7" style="fill:#2b4d9a;stroke:#2b4d9a;stroke-miterlimit:10;stroke-width:4px"/><polygon points="1263 448.49 1263 812.77 1334.63 812.77 1334.63 448.49 1312.88 448.49 1302.65 429.3 1289.86 429.3 1278.35 448.49 1263 448.49" style="fill:#2b4d9a"/><polygon points="1314.16 360.24 1314.16 813 1410.09 813 1410.09 360.24 1380.67 330.82 1366.6 358.96 1336.55 328.9 1314.16 360.24" style="fill:#3056ad"/><rect x="1352.53" y="486.86" width="57.55" height="326.14" style="fill:#355fbf"/><rect x="1410.09" y="539.95" width="84.41" height="273.05" style="fill:#3056ad"/><rect x="1427.99" y="575.11" width="95.92" height="236.61" style="fill:#355fbf"/><polygon points="1236.89 592.47 1263 592.47 1263 813 1237.42 811.72 1236.89 592.47" style="fill:#264488"/><polygon points="1523.92 575.11 1523.92 549.53 1562.29 549.53 1562.29 540.58 1581.47 540.58 1592.34 551.45 1612.17 551.45 1612.17 811.72 1523.92 811.72 1523.92 575.11" style="fill:#3056ad"/><polygon points="1627.52 571.27 1627.52 811.72 1691.46 811.72 1691.46 513.72 1642.86 513.72 1642.86 571.27 1627.52 571.27" style="fill:#2b4d9a"/><line x1="1651.35" y1="513.72" x2="1651.35" y2="444.65" style="fill:#2b4d9a;stroke:#2b4d9a;stroke-miterlimit:10;stroke-width:4px"/><line x1="1670.35" y1="513.72" x2="1670.35" y2="444.65" style="fill:#2b4d9a;stroke:#2b4d9a;stroke-miterlimit:10;stroke-width:4px"/><polygon points="1612.17 608.71 1663.33 608.71 1663.33 621.15 1731.11 621.15 1731.11 811.72 1612.17 811.72 1612.17 608.71" style="fill:#3056ad"/><polygon points="1663.33 669.75 1663.33 658.24 1682.51 658.24 1682.51 645.45 1800.18 645.45 1800.18 811.72 1663.33 811.72 1663.33 669.75" style="fill:#355fbf"/><polygon points="1804.02 558.53 1848.78 544.41 1908.13 544.41 1919.13 544.41 1919.13 813 1804.02 813 1804.02 558.53" style="fill:#2b4d9a"/><polygon points="1907.61 523.95 1888.43 523.95 1842.39 536.74 1842.39 544.41 1907.61 544.41 1907.61 523.95" style="fill:#264488"/><polygon points="1064.76 811.72 1064.76 753.92 1108.24 753.92 1119 743.17 1173.47 743.17 1181.53 751.23 1227.19 751.23 1227.19 731.14 1241.26 731.14 1241.26 726.03 1261.72 726.03 1261.72 732.42 1280.91 732.42 1280.91 755.45 1306.49 755.45 1306.49 813 1064.76 811.72" style="fill:#355fbf"/><polygon points="1578.91 669.75 1663.33 669.75 1663.33 811.72 1573.36 811.72 1578.91 669.75" style="fill:#355fbf"/><polygon points="411.19 683.54 457.24 683.54 457.24 667.2 477.7 667.2 477.7 813 411.19 813 411.19 683.54" style="fill:#355fbf"/><polygon points="203.6 812.36 203.6 662.08 224.46 662.08 224.46 640.34 233.42 640.34 233.42 622.43 253.88 622.43 253.88 639.06 262.83 639.06 262.83 662.08 270.51 662.08 270.51 813 203.6 812.36" style="fill:#355fbf"/></g></svg>
