<svg xmlns="http://www.w3.org/2000/svg" viewBox="0 0 1920 1080"><title>ChicagoSkylineWhite2</title><g id="Layer_2" data-name="Layer 2"><rect x="767.13" y="942" width="106" height="138" style="fill:#b3b3b3;stroke:#fff;stroke-miterlimit:10;stroke-width:4px"/><rect x="686.13" y="969.07" width="55" height="110.93" style="fill:#b3b3b3;stroke:#fff;stroke-miterlimit:10;stroke-width:4px"/><rect x="892.13" y="899" width="39" height="180.5" style="fill:#b3b3b3;stroke:#fff;stroke-miterlimit:10;stroke-width:4px"/><rect x="931.13" y="961.43" width="72" height="118.57" style="fill:#b3b3b3;stroke:#fff;stroke-miterlimit:10;stroke-width:4px"/><rect x="1026.13" y="944.49" width="63" height="135.51" style="fill:#b3b3b3;stroke:#fff;stroke-miterlimit:10;stroke-width:4px"/><polygon points="1778.47 1079.82 1778.47 828 1788.13 782 1819.13 782 1830.13 827 1830.13 1080 1778.47 1079.82" style="fill:#b3b3b3;stroke:#fff;stroke-miterlimit:10;stroke-width:4px"/><polygon points="1089.13 751 1127.13 751 1127.13 742 1145.13 742 1145.13 751 1182.13 751 1182.13 1080 1089.13 1080 1089.13 751" style="fill:#999;stroke:#fff;stroke-miterlimit:10;stroke-width:4px"/><polygon points="1198.13 619 1172.5 1079.5 1307.13 1079.5 1276.13 612 1270.13 612 1270.13 597 1265.13 597 1265.13 572 1254.13 572 1254.13 596 1221.13 596 1221.13 570 1210.13 570 1210.13 596 1205.13 596 1205.13 613 1198.13 613 1198.13 619" style="fill:#b3b3b3;stroke:#fff;stroke-miterlimit:10;stroke-width:4px"/><polygon points="1063.13 914 1063.13 1079.5 1095.13 1079.5 1095.13 914 1078.13 897 1063.13 914" style="fill:#ccc;stroke:#fff;stroke-miterlimit:10;stroke-width:4px"/><polygon points="867.13 935 867.13 1079.5 901.13 1079.5 901.13 924 873.13 924 867.13 935" style="fill:#ccc;stroke:#fff;stroke-miterlimit:10;stroke-width:4px"/><polygon points="419.63 1079.5 419.63 934.5 452.63 934.5 452.63 925.5 471.63 925.5 471.63 933.5 481.63 933.5 481.63 1079.5 419.63 1079.5" style="fill:#ccc;stroke:#fff;stroke-miterlimit:10;stroke-width:4px"/><polygon points="532.9 1079.5 532.9 918 547.13 918 547.13 906 570.13 906 570.13 917 583.13 917 583.13 1080 532.9 1079.5" style="fill:#ccc;stroke:#fff;stroke-miterlimit:10;stroke-width:4px"/><polygon points="647.13 931 647.13 1080 686.13 1080 686.13 954 673.13 954 673.13 931 647.13 931" style="fill:#ccc;stroke:#fff;stroke-miterlimit:10;stroke-width:4px"/><polygon points="720.13 915 720.13 1079.5 767.13 1079.5 767.13 918 751.13 909 730.13 909 720.13 915" style="fill:#ccc;stroke:#fff;stroke-miterlimit:10;stroke-width:4px"/><polygon points="457.99 1079.5 457.99 999 499.13 999 499.13 1018 547.13 1018 547.13 1080 457.99 1079.5" style="fill:#e6e6e6;stroke:#fff;stroke-miterlimit:10;stroke-width:4px"/><rect x="631.13" y="978.78" width="32" height="101.22" style="fill:none;stroke:#fff;stroke-miterlimit:10;stroke-width:4px"/><polyline points="631.13 962 651.13 942 651.13 962 663.63 974.5 663.63 1080 631.13 1080" style="fill:#ccc;stroke:#fff;stroke-miterlimit:10;stroke-width:4px"/><rect x="639.12" y="1007" width="35" height="73" style="fill:#e6e6e6;stroke:#fff;stroke-miterlimit:10;stroke-width:4px"/><rect x="711.13" y="937" width="30" height="143" style="fill:#e6e6e6;stroke:#fff;stroke-miterlimit:10;stroke-width:4px"/><polygon points="785.13 931 785.13 1080 858.98 1080 858.98 931 850.13 931 850.13 918 832.13 918 832.13 911 820.13 911 820.13 917 793.13 917 793.13 931 785.13 931" style="fill:#ccc;stroke:#fff;stroke-miterlimit:10;stroke-width:4px"/><rect x="906.12" y="1002" width="87" height="78" style="fill:#e6e6e6;stroke:#fff;stroke-miterlimit:10;stroke-width:4px"/><polygon points="981.13 841 981.13 1079.5 1026.13 1079.5 1026.13 841 1011.13 834 993.13 834 981.13 841" style="fill:#ccc;stroke:#fff;stroke-miterlimit:10;stroke-width:4px"/><rect x="805.13" y="1041" width="81" height="38.5" style="fill:#e6e6e6;stroke:#fff;stroke-miterlimit:10;stroke-width:4px"/><rect x="1014.13" y="994" width="67.26" height="85.5" style="fill:#e6e6e6;stroke:#fff;stroke-miterlimit:10;stroke-width:4px"/><line x1="1259.03" y1="572" x2="1259.13" y2="464" style="fill:none;stroke:#fff;stroke-miterlimit:10;stroke-width:4px"/><line x1="1215.86" y1="570" x2="1216.13" y2="444" style="fill:none;stroke:#fff;stroke-miterlimit:10;stroke-width:4px"/><rect x="1152.13" y="994" width="38.93" height="85.5" style="fill:#e6e6e6;stroke:#fff;stroke-miterlimit:10;stroke-width:4px"/><rect x="1109.13" y="959" width="31" height="120.5" style="fill:#e6e6e6;stroke:#fff;stroke-miterlimit:10;stroke-width:4px"/><line x1="1140.13" y1="997.07" x2="1152.13" y2="997.07" style="fill:none;stroke:#fff;stroke-miterlimit:10;stroke-width:4px"/><polygon points="1199.13 957 1199.13 1079.5 1237.14 1079.5 1237.14 968.38 1237.14 957 1229.13 957 1229.13 926 1216.13 913 1204.63 924.5 1204.63 957 1199.13 957" style="fill:#ccc;stroke:#fff;stroke-miterlimit:10;stroke-width:4px"/><rect x="1228.7" y="968" width="23.42" height="111.5" style="fill:#e6e6e6;stroke:#fff;stroke-miterlimit:10;stroke-width:4px"/><polygon points="1366.48 1031.7 1366.48 1001 1252.13 1001 1252.13 1034 1366.48 1031.7" style="fill:#e6e6e6;stroke:#fff;stroke-miterlimit:10;stroke-width:4px"/><polyline points="1275.43 1001 1275.43 977 1357.13 977 1357.13 1001" style="fill:#e6e6e6;stroke:#fff;stroke-miterlimit:10;stroke-width:4px"/><rect x="1286.69" y="904" width="63.43" height="73" style="fill:#e6e6e6;stroke:#fff;stroke-miterlimit:10;stroke-width:4px"/><polyline points="1287.13 904 1287.13 883 1346.13 883 1346.13 904.1" style="fill:#e6e6e6;stroke:#fff;stroke-miterlimit:10;stroke-width:4px"/><polygon points="1296.7 883 1307.13 873 1326.13 873 1338.32 883 1296.7 883" style="fill:#e6e6e6;stroke:#fff;stroke-miterlimit:10;stroke-width:4px"/><rect x="1313.13" y="842" width="5.28" height="31" style="fill:#e6e6e6;stroke:#fff;stroke-miterlimit:10;stroke-width:4px"/><polygon points="1350.13 806 1350.13 1079.5 1386.71 1079.5 1386.71 809 1373.13 803 1373.13 792 1357.13 792 1357.13 807 1350.13 806" style="fill:#b3b3b3;stroke:#fff;stroke-miterlimit:10;stroke-width:4px"/><line x1="1362.95" y1="792" x2="1363.13" y2="742" style="fill:none;stroke:#fff;stroke-miterlimit:10;stroke-width:4px"/><polygon points="1407.13 795 1407.13 1079.82 1463.13 1079.82 1463.13 795 1446.13 795 1438.13 780 1428.13 780 1419.13 795 1407.13 795" style="fill:#b3b3b3;stroke:#fff;stroke-miterlimit:10;stroke-width:4px"/><polygon points="1447.13 726 1447.13 1080 1522.13 1080 1522.13 726 1499.13 703 1488.13 725 1464.63 701.5 1447.13 726" style="fill:#ccc;stroke:#fff;stroke-miterlimit:10;stroke-width:4px"/><rect x="1477.13" y="825" width="45" height="255" style="fill:#e6e6e6;stroke:#fff;stroke-miterlimit:10;stroke-width:4px"/><rect x="1484.13" y="994" width="52" height="86" style="fill:none;stroke:#fff;stroke-miterlimit:10;stroke-width:4px"/><rect x="1522.13" y="866.51" width="66" height="213.49" style="fill:#ccc;stroke:#fff;stroke-miterlimit:10;stroke-width:4px"/><rect x="1536.13" y="894" width="75" height="185" style="fill:#e6e6e6;stroke:#fff;stroke-miterlimit:10;stroke-width:4px"/><polygon points="1386.71 907.57 1407.13 907.57 1407.13 1080 1387.13 1079 1386.71 907.57" style="fill:#999;stroke:#fff;stroke-miterlimit:10;stroke-width:4px"/><polygon points="1611.13 894 1611.13 874 1641.13 874 1641.13 867 1656.13 867 1664.63 875.5 1680.13 875.5 1680.13 1079 1611.13 1079 1611.13 894" style="fill:#ccc;stroke:#fff;stroke-miterlimit:10;stroke-width:4px"/><polygon points="1692.13 891 1692.13 1079 1742.13 1079 1742.13 846 1704.13 846 1704.13 891 1692.13 891" style="fill:#b3b3b3;stroke:#fff;stroke-miterlimit:10;stroke-width:4px"/><line x1="1710.76" y1="846" x2="1710.76" y2="792" style="fill:none;stroke:#fff;stroke-miterlimit:10;stroke-width:4px"/><line x1="1725.62" y1="846" x2="1725.62" y2="792" style="fill:none;stroke:#fff;stroke-miterlimit:10;stroke-width:4px"/><polygon points="1680.13 920.27 1720.13 920.27 1720.13 930 1773.13 930 1773.13 1079 1680.13 1079 1680.13 920.27" style="fill:#ccc;stroke:#fff;stroke-miterlimit:10;stroke-width:4px"/><polygon points="1720.13 968 1720.13 959 1735.13 959 1735.13 949 1827.13 949 1827.13 1079 1720.13 1079 1720.13 968" style="fill:#e6e6e6;stroke:#fff;stroke-miterlimit:10;stroke-width:4px"/><polygon points="1830.13 881.04 1865.13 870 1911.53 870 1920.13 870 1920.13 1080 1830.13 1080 1830.13 881.04" style="fill:#b3b3b3;stroke:#fff;stroke-miterlimit:10;stroke-width:4px"/><polygon points="1911.13 854 1896.13 854 1860.13 864 1860.13 870 1911.13 870 1911.13 854" style="fill:#999;stroke:#fff;stroke-miterlimit:10;stroke-width:4px"/><polygon points="1252.13 1079 1252.13 1033.81 1286.13 1033.81 1294.53 1025.41 1337.13 1025.41 1343.42 1031.7 1379.13 1031.7 1379.13 1016 1390.13 1016 1390.13 1012 1406.13 1012 1406.13 1017 1421.13 1017 1421.13 1035 1441.13 1035 1441.13 1080 1252.13 1079" style="fill:#e6e6e6;stroke:#fff;stroke-miterlimit:10;stroke-width:4px"/><polygon points="1654.13 968 1720.13 968 1720.13 1079 1649.78 1079 1654.13 968" style="fill:#e6e6e6;stroke:#fff;stroke-miterlimit:10;stroke-width:4px"/><rect x="1140.13" y="997" width="12" height="82" style="fill:#ccc;stroke:#fff;stroke-miterlimit:10;stroke-width:4px"/><polygon points="741.13 978.78 777.13 978.78 777.13 966 793.13 966 793.13 1080 741.13 1080 741.13 978.78" style="fill:#e6e6e6;stroke:#fff;stroke-miterlimit:10;stroke-width:4px"/><polygon points="578.81 1079.5 578.81 962 595.13 962 595.13 945 602.13 945 602.13 931 618.13 931 618.13 944 625.13 944 625.13 962 631.13 962 631.13 1080 578.81 1079.5" style="fill:#e6e6e6;stroke:#fff;stroke-miterlimit:10;stroke-width:4px"/></g></svg>