<svg xmlns="http://www.w3.org/2000/svg" viewBox="0 0 1920 1080"><title>ChicagoSkyline</title><g id="Layer_2" data-name="Layer 2"><rect x="-6.13" width="1930" height="1080" style="fill:#1a1a1a"/><rect x="557.13" y="720" width="106" height="138" style="fill:#b3b3b3;stroke:#fff;stroke-miterlimit:10;stroke-width:4px"/><rect x="476.13" y="747.07" width="55" height="110.93" style="fill:#b3b3b3;stroke:#fff;stroke-miterlimit:10;stroke-width:4px"/><rect x="682.13" y="677" width="39" height="180.5" style="fill:#b3b3b3;stroke:#fff;stroke-miterlimit:10;stroke-width:4px"/><rect x="721.13" y="739.43" width="72" height="118.57" style="fill:#b3b3b3;stroke:#fff;stroke-miterlimit:10;stroke-width:4px"/><rect x="816.13" y="722.49" width="63" height="135.51" style="fill:#b3b3b3;stroke:#fff;stroke-miterlimit:10;stroke-width:4px"/><polygon points="1568.47 857.82 1568.47 606 1578.13 560 1609.13 560 1620.13 605 1620.13 858 1568.47 857.82" style="fill:#b3b3b3;stroke:#fff;stroke-miterlimit:10;stroke-width:4px"/><polygon points="879.13 529 917.13 529 917.13 520 935.13 520 935.13 529 972.13 529 972.13 858 879.13 858 879.13 529" style="fill:#999;stroke:#fff;stroke-miterlimit:10;stroke-width:4px"/><polygon points="988.13 397 962.5 857.5 1097.13 857.5 1066.13 390 1060.13 390 1060.13 375 1055.13 375 1055.13 350 1044.13 350 1044.13 374 1011.13 374 1011.13 348 1000.13 348 1000.13 374 995.13 374 995.13 391 988.13 391 988.13 397" style="fill:#b3b3b3;stroke:#fff;stroke-miterlimit:10;stroke-width:4px"/><polygon points="853.13 692 853.13 857.5 885.13 857.5 885.13 692 868.13 675 853.13 692" style="fill:#ccc;stroke:#fff;stroke-miterlimit:10;stroke-width:4px"/><polygon points="657.13 713 657.13 857.5 691.13 857.5 691.13 702 663.13 702 657.13 713" style="fill:#ccc;stroke:#fff;stroke-miterlimit:10;stroke-width:4px"/><polygon points="209.63 857.5 209.63 712.5 242.63 712.5 242.63 703.5 261.63 703.5 261.63 711.5 271.63 711.5 271.63 857.5 209.63 857.5" style="fill:#ccc;stroke:#fff;stroke-miterlimit:10;stroke-width:4px"/><polygon points="322.9 857.5 322.9 696 337.13 696 337.13 684 360.13 684 360.13 695 373.13 695 373.13 858 322.9 857.5" style="fill:#ccc;stroke:#fff;stroke-miterlimit:10;stroke-width:4px"/><polygon points="437.13 709 437.13 858 476.13 858 476.13 732 463.13 732 463.13 709 437.13 709" style="fill:#ccc;stroke:#fff;stroke-miterlimit:10;stroke-width:4px"/><polygon points="510.13 693 510.13 857.5 557.13 857.5 557.13 696 541.13 687 520.13 687 510.13 693" style="fill:#ccc;stroke:#fff;stroke-miterlimit:10;stroke-width:4px"/><polygon points="247.99 857.5 247.99 777 289.13 777 289.13 796 337.13 796 337.13 858 247.99 857.5" style="fill:#e6e6e6;stroke:#fff;stroke-miterlimit:10;stroke-width:4px"/><rect x="421.13" y="756.78" width="32" height="101.22" style="fill:none;stroke:#fff;stroke-miterlimit:10;stroke-width:4px"/><polyline points="421.13 740 441.13 720 441.13 740 453.63 752.5 453.63 858 421.13 858" style="fill:#ccc;stroke:#fff;stroke-miterlimit:10;stroke-width:4px"/><rect x="429.12" y="785" width="35" height="73" style="fill:#e6e6e6;stroke:#fff;stroke-miterlimit:10;stroke-width:4px"/><rect x="501.13" y="715" width="30" height="143" style="fill:#e6e6e6;stroke:#fff;stroke-miterlimit:10;stroke-width:4px"/><polygon points="575.13 709 575.13 858 648.98 858 648.98 709 640.13 709 640.13 696 622.13 696 622.13 689 610.13 689 610.13 695 583.13 695 583.13 709 575.13 709" style="fill:#ccc;stroke:#fff;stroke-miterlimit:10;stroke-width:4px"/><rect x="696.12" y="780" width="87" height="78" style="fill:#e6e6e6;stroke:#fff;stroke-miterlimit:10;stroke-width:4px"/><polygon points="771.13 619 771.13 857.5 816.13 857.5 816.13 619 801.13 612 783.13 612 771.13 619" style="fill:#ccc;stroke:#fff;stroke-miterlimit:10;stroke-width:4px"/><rect x="595.13" y="819" width="81" height="38.5" style="fill:#e6e6e6;stroke:#fff;stroke-miterlimit:10;stroke-width:4px"/><rect x="804.13" y="772" width="67.26" height="85.5" style="fill:#e6e6e6;stroke:#fff;stroke-miterlimit:10;stroke-width:4px"/><line x1="1049.03" y1="350" x2="1049.13" y2="242" style="fill:none;stroke:#fff;stroke-miterlimit:10;stroke-width:4px"/><line x1="1005.86" y1="348" x2="1006.13" y2="222" style="fill:none;stroke:#fff;stroke-miterlimit:10;stroke-width:4px"/><rect x="942.13" y="772" width="38.93" height="85.5" style="fill:#e6e6e6;stroke:#fff;stroke-miterlimit:10;stroke-width:4px"/><rect x="899.13" y="737" width="31" height="120.5" style="fill:#e6e6e6;stroke:#fff;stroke-miterlimit:10;stroke-width:4px"/><line x1="930.13" y1="775.07" x2="942.13" y2="775.07" style="fill:none;stroke:#fff;stroke-miterlimit:10;stroke-width:4px"/><polygon points="989.13 735 989.13 857.5 1027.14 857.5 1027.14 746.38 1027.14 735 1019.13 735 1019.13 704 1006.13 691 994.63 702.5 994.63 735 989.13 735" style="fill:#ccc;stroke:#fff;stroke-miterlimit:10;stroke-width:4px"/><rect x="1018.7" y="746" width="23.42" height="111.5" style="fill:#e6e6e6;stroke:#fff;stroke-miterlimit:10;stroke-width:4px"/><polygon points="1156.48 809.7 1156.48 779 1042.13 779 1042.13 812 1156.48 809.7" style="fill:#e6e6e6;stroke:#fff;stroke-miterlimit:10;stroke-width:4px"/><polyline points="1065.43 779 1065.43 755 1147.13 755 1147.13 779" style="fill:#e6e6e6;stroke:#fff;stroke-miterlimit:10;stroke-width:4px"/><rect x="1076.69" y="682" width="63.43" height="73" style="fill:#e6e6e6;stroke:#fff;stroke-miterlimit:10;stroke-width:4px"/><polyline points="1077.13 682 1077.13 661 1136.13 661 1136.13 682.1" style="fill:#e6e6e6;stroke:#fff;stroke-miterlimit:10;stroke-width:4px"/><polygon points="1086.7 661 1097.13 651 1116.13 651 1128.32 661 1086.7 661" style="fill:#e6e6e6;stroke:#fff;stroke-miterlimit:10;stroke-width:4px"/><rect x="1103.13" y="620" width="5.28" height="31" style="fill:#e6e6e6;stroke:#fff;stroke-miterlimit:10;stroke-width:4px"/><polygon points="1140.13 584 1140.13 857.5 1176.71 857.5 1176.71 587 1163.13 581 1163.13 570 1147.13 570 1147.13 585 1140.13 584" style="fill:#b3b3b3;stroke:#fff;stroke-miterlimit:10;stroke-width:4px"/><line x1="1152.95" y1="570" x2="1153.13" y2="520" style="fill:none;stroke:#fff;stroke-miterlimit:10;stroke-width:4px"/><polygon points="1197.13 573 1197.13 857.82 1253.13 857.82 1253.13 573 1236.13 573 1228.13 558 1218.13 558 1209.13 573 1197.13 573" style="fill:#b3b3b3;stroke:#fff;stroke-miterlimit:10;stroke-width:4px"/><polygon points="1237.13 504 1237.13 858 1312.13 858 1312.13 504 1289.13 481 1278.13 503 1254.63 479.5 1237.13 504" style="fill:#ccc;stroke:#fff;stroke-miterlimit:10;stroke-width:4px"/><rect x="1267.13" y="603" width="45" height="255" style="fill:#e6e6e6;stroke:#fff;stroke-miterlimit:10;stroke-width:4px"/><rect x="1274.13" y="772" width="52" height="86" style="fill:none;stroke:#fff;stroke-miterlimit:10;stroke-width:4px"/><rect x="1312.13" y="644.51" width="66" height="213.49" style="fill:#ccc;stroke:#fff;stroke-miterlimit:10;stroke-width:4px"/><rect x="1326.13" y="672" width="75" height="185" style="fill:#e6e6e6;stroke:#fff;stroke-miterlimit:10;stroke-width:4px"/><polygon points="1176.71 685.57 1197.13 685.57 1197.13 858 1177.13 857 1176.71 685.57" style="fill:#999;stroke:#fff;stroke-miterlimit:10;stroke-width:4px"/><polygon points="1401.13 672 1401.13 652 1431.13 652 1431.13 645 1446.13 645 1454.63 653.5 1470.13 653.5 1470.13 857 1401.13 857 1401.13 672" style="fill:#ccc;stroke:#fff;stroke-miterlimit:10;stroke-width:4px"/><polygon points="1482.13 669 1482.13 857 1532.13 857 1532.13 624 1494.13 624 1494.13 669 1482.13 669" style="fill:#b3b3b3;stroke:#fff;stroke-miterlimit:10;stroke-width:4px"/><line x1="1500.76" y1="624" x2="1500.76" y2="570" style="fill:none;stroke:#fff;stroke-miterlimit:10;stroke-width:4px"/><line x1="1515.62" y1="624" x2="1515.62" y2="570" style="fill:none;stroke:#fff;stroke-miterlimit:10;stroke-width:4px"/><polygon points="1470.13 698.27 1510.13 698.27 1510.13 708 1563.13 708 1563.13 857 1470.13 857 1470.13 698.27" style="fill:#ccc;stroke:#fff;stroke-miterlimit:10;stroke-width:4px"/><polygon points="1510.13 746 1510.13 737 1525.13 737 1525.13 727 1617.13 727 1617.13 857 1510.13 857 1510.13 746" style="fill:#e6e6e6;stroke:#fff;stroke-miterlimit:10;stroke-width:4px"/><polygon points="1620.13 659.04 1655.13 648 1701.53 648 1710.13 648 1710.13 858 1620.13 858 1620.13 659.04" style="fill:#b3b3b3;stroke:#fff;stroke-miterlimit:10;stroke-width:4px"/><polygon points="1701.13 632 1686.13 632 1650.13 642 1650.13 648 1701.13 648 1701.13 632" style="fill:#999;stroke:#fff;stroke-miterlimit:10;stroke-width:4px"/><polygon points="1042.13 857 1042.13 811.81 1076.13 811.81 1084.53 803.41 1127.13 803.41 1133.42 809.7 1169.13 809.7 1169.13 794 1180.13 794 1180.13 790 1196.13 790 1196.13 795 1211.13 795 1211.13 813 1231.13 813 1231.13 858 1042.13 857" style="fill:#e6e6e6;stroke:#fff;stroke-miterlimit:10;stroke-width:4px"/><polygon points="1444.13 746 1510.13 746 1510.13 857 1439.78 857 1444.13 746" style="fill:#e6e6e6;stroke:#fff;stroke-miterlimit:10;stroke-width:4px"/><rect x="930.13" y="775" width="12" height="82" style="fill:#ccc;stroke:#fff;stroke-miterlimit:10;stroke-width:4px"/><polygon points="531.13 756.78 567.13 756.78 567.13 744 583.13 744 583.13 858 531.13 858 531.13 756.78" style="fill:#e6e6e6;stroke:#fff;stroke-miterlimit:10;stroke-width:4px"/><polygon points="368.81 857.5 368.81 740 385.13 740 385.13 723 392.13 723 392.13 709 408.13 709 408.13 722 415.13 722 415.13 740 421.13 740 421.13 858 368.81 857.5" style="fill:#e6e6e6;stroke:#fff;stroke-miterlimit:10;stroke-width:4px"/></g></svg>