<svg xmlns="http://www.w3.org/2000/svg" xmlns:xlink="http://www.w3.org/1999/xlink" viewBox="0 0 4503.65 2193.2"><title>ChicagoSkylineWhite</title><g id="Layer_1" data-name="Layer 1"><image width="800" height="534" transform="translate(2885.38 1113) scale(2.02)" xlink:href="ChicagoSkyline.jpg"/></g><g id="Layer_2" data-name="Layer 2"><rect x="1920.38" width="1930" height="1080" style="fill:#1a1a1a"/><rect x="349.5" y="1879" width="106" height="138" style="fill:#b3b3b3;stroke:#fff;stroke-miterlimit:10;stroke-width:4px"/><rect x="268.5" y="1906.07" width="55" height="110.93" style="fill:#b3b3b3;stroke:#fff;stroke-miterlimit:10;stroke-width:4px"/><rect x="474.5" y="1836" width="39" height="180.5" style="fill:#b3b3b3;stroke:#fff;stroke-miterlimit:10;stroke-width:4px"/><rect x="513.5" y="1898.43" width="72" height="118.57" style="fill:#b3b3b3;stroke:#fff;stroke-miterlimit:10;stroke-width:4px"/><rect x="608.5" y="1881.49" width="63" height="135.51" style="fill:#b3b3b3;stroke:#fff;stroke-miterlimit:10;stroke-width:4px"/><polygon points="1360.84 2016.82 1360.84 1765 1370.5 1719 1401.5 1719 1412.5 1764 1412.5 2017 1360.84 2016.82" style="fill:#b3b3b3;stroke:#fff;stroke-miterlimit:10;stroke-width:4px"/><polygon points="671.5 1688 709.5 1688 709.5 1679 727.5 1679 727.5 1688 764.5 1688 764.5 2017 671.5 2017 671.5 1688" style="fill:#999;stroke:#fff;stroke-miterlimit:10;stroke-width:4px"/><polygon points="780.5 1556 754.88 2016.5 889.5 2016.5 858.5 1549 852.5 1549 852.5 1534 847.5 1534 847.5 1509 836.5 1509 836.5 1533 803.5 1533 803.5 1507 792.5 1507 792.5 1533 787.5 1533 787.5 1550 780.5 1550 780.5 1556" style="fill:#b3b3b3;stroke:#fff;stroke-miterlimit:10;stroke-width:4px"/><polygon points="645.5 1851 645.5 2016.5 677.5 2016.5 677.5 1851 660.5 1834 645.5 1851" style="fill:#ccc;stroke:#fff;stroke-miterlimit:10;stroke-width:4px"/><polygon points="449.5 1872 449.5 2016.5 483.5 2016.5 483.5 1861 455.5 1861 449.5 1872" style="fill:#ccc;stroke:#fff;stroke-miterlimit:10;stroke-width:4px"/><polygon points="2 2016.5 2 1871.5 35 1871.5 35 1862.5 54 1862.5 54 1870.5 64 1870.5 64 2016.5 2 2016.5" style="fill:#ccc;stroke:#fff;stroke-miterlimit:10;stroke-width:4px"/><polygon points="115.27 2016.5 115.27 1855 129.5 1855 129.5 1843 152.5 1843 152.5 1854 165.5 1854 165.5 2017 115.27 2016.5" style="fill:#ccc;stroke:#fff;stroke-miterlimit:10;stroke-width:4px"/><polygon points="229.5 1868 229.5 2017 268.5 2017 268.5 1891 255.5 1891 255.5 1868 229.5 1868" style="fill:#ccc;stroke:#fff;stroke-miterlimit:10;stroke-width:4px"/><polygon points="302.5 1852 302.5 2016.5 349.5 2016.5 349.5 1855 333.5 1846 312.5 1846 302.5 1852" style="fill:#ccc;stroke:#fff;stroke-miterlimit:10;stroke-width:4px"/><polygon points="40.37 2016.5 40.37 1936 81.5 1936 81.5 1955 129.5 1955 129.5 2017 40.37 2016.5" style="fill:#e6e6e6;stroke:#fff;stroke-miterlimit:10;stroke-width:4px"/><rect x="213.5" y="1915.78" width="32" height="101.22" style="fill:none;stroke:#fff;stroke-miterlimit:10;stroke-width:4px"/><polyline points="213.5 1899 233.5 1879 233.5 1899 246 1911.5 246 2017 213.5 2017" style="fill:#ccc;stroke:#fff;stroke-miterlimit:10;stroke-width:4px"/><rect x="221.5" y="1944" width="35" height="73" style="fill:#e6e6e6;stroke:#fff;stroke-miterlimit:10;stroke-width:4px"/><rect x="293.5" y="1874" width="30" height="143" style="fill:#e6e6e6;stroke:#fff;stroke-miterlimit:10;stroke-width:4px"/><polygon points="367.5 1868 367.5 2017 441.35 2017 441.35 1868 432.5 1868 432.5 1855 414.5 1855 414.5 1848 402.5 1848 402.5 1854 375.5 1854 375.5 1868 367.5 1868" style="fill:#ccc;stroke:#fff;stroke-miterlimit:10;stroke-width:4px"/><rect x="488.5" y="1939" width="87" height="78" style="fill:#e6e6e6;stroke:#fff;stroke-miterlimit:10;stroke-width:4px"/><polygon points="563.5 1778 563.5 2016.5 608.5 2016.5 608.5 1778 593.5 1771 575.5 1771 563.5 1778" style="fill:#ccc;stroke:#fff;stroke-miterlimit:10;stroke-width:4px"/><rect x="387.5" y="1978" width="81" height="38.5" style="fill:#e6e6e6;stroke:#fff;stroke-miterlimit:10;stroke-width:4px"/><rect x="596.5" y="1931" width="67.26" height="85.5" style="fill:#e6e6e6;stroke:#fff;stroke-miterlimit:10;stroke-width:4px"/><line x1="841.4" y1="1509" x2="841.5" y2="1401" style="fill:none;stroke:#fff;stroke-miterlimit:10;stroke-width:4px"/><line x1="798.23" y1="1507" x2="798.5" y2="1381" style="fill:none;stroke:#fff;stroke-miterlimit:10;stroke-width:4px"/><rect x="734.5" y="1931" width="38.93" height="85.5" style="fill:#e6e6e6;stroke:#fff;stroke-miterlimit:10;stroke-width:4px"/><rect x="691.5" y="1896" width="31" height="120.5" style="fill:#e6e6e6;stroke:#fff;stroke-miterlimit:10;stroke-width:4px"/><line x1="722.5" y1="1934.07" x2="734.5" y2="1934.07" style="fill:none;stroke:#fff;stroke-miterlimit:10;stroke-width:4px"/><polygon points="781.5 1894 781.5 2016.5 819.52 2016.5 819.52 1905.38 819.52 1894 811.5 1894 811.5 1863 798.5 1850 787 1861.5 787 1894 781.5 1894" style="fill:#ccc;stroke:#fff;stroke-miterlimit:10;stroke-width:4px"/><rect x="811.08" y="1905" width="23.42" height="111.5" style="fill:#e6e6e6;stroke:#fff;stroke-miterlimit:10;stroke-width:4px"/><polygon points="948.85 1968.7 948.85 1938 834.5 1938 834.5 1971 948.85 1968.7" style="fill:#e6e6e6;stroke:#fff;stroke-miterlimit:10;stroke-width:4px"/><polyline points="857.8 1938 857.8 1914 939.5 1914 939.5 1938" style="fill:#e6e6e6;stroke:#fff;stroke-miterlimit:10;stroke-width:4px"/><rect x="869.07" y="1841" width="63.43" height="73" style="fill:#e6e6e6;stroke:#fff;stroke-miterlimit:10;stroke-width:4px"/><polyline points="869.5 1841 869.5 1820 928.5 1820 928.5 1841.1" style="fill:#e6e6e6;stroke:#fff;stroke-miterlimit:10;stroke-width:4px"/><polygon points="879.08 1820 889.5 1810 908.5 1810 920.69 1820 879.08 1820" style="fill:#e6e6e6;stroke:#fff;stroke-miterlimit:10;stroke-width:4px"/><rect x="895.5" y="1779" width="5.28" height="31" style="fill:#e6e6e6;stroke:#fff;stroke-miterlimit:10;stroke-width:4px"/><polygon points="932.5 1743 932.5 2016.5 969.09 2016.5 969.09 1746 955.5 1740 955.5 1729 939.5 1729 939.5 1744 932.5 1743" style="fill:#b3b3b3;stroke:#fff;stroke-miterlimit:10;stroke-width:4px"/><line x1="945.32" y1="1729" x2="945.5" y2="1679" style="fill:none;stroke:#fff;stroke-miterlimit:10;stroke-width:4px"/><polygon points="989.5 1732 989.5 2016.82 1045.5 2016.82 1045.5 1732 1028.5 1732 1020.5 1717 1010.5 1717 1001.5 1732 989.5 1732" style="fill:#b3b3b3;stroke:#fff;stroke-miterlimit:10;stroke-width:4px"/><polygon points="1029.5 1663 1029.5 2017 1104.5 2017 1104.5 1663 1081.5 1640 1070.5 1662 1047 1638.5 1029.5 1663" style="fill:#ccc;stroke:#fff;stroke-miterlimit:10;stroke-width:4px"/><rect x="1059.5" y="1762" width="45" height="255" style="fill:#e6e6e6;stroke:#fff;stroke-miterlimit:10;stroke-width:4px"/><rect x="1066.5" y="1931" width="52" height="86" style="fill:none;stroke:#fff;stroke-miterlimit:10;stroke-width:4px"/><rect x="1104.5" y="1803.51" width="66" height="213.49" style="fill:#ccc;stroke:#fff;stroke-miterlimit:10;stroke-width:4px"/><rect x="1118.5" y="1831" width="75" height="185" style="fill:#e6e6e6;stroke:#fff;stroke-miterlimit:10;stroke-width:4px"/><polygon points="969.09 1844.57 989.5 1844.57 989.5 2017 969.5 2016 969.09 1844.57" style="fill:#999;stroke:#fff;stroke-miterlimit:10;stroke-width:4px"/><polygon points="1193.5 1831 1193.5 1811 1223.5 1811 1223.5 1804 1238.5 1804 1247 1812.5 1262.5 1812.5 1262.5 2016 1193.5 2016 1193.5 1831" style="fill:#ccc;stroke:#fff;stroke-miterlimit:10;stroke-width:4px"/><polygon points="1274.5 1828 1274.5 2016 1324.5 2016 1324.5 1783 1286.5 1783 1286.5 1828 1274.5 1828" style="fill:#b3b3b3;stroke:#fff;stroke-miterlimit:10;stroke-width:4px"/><line x1="1293.13" y1="1783" x2="1293.13" y2="1729" style="fill:none;stroke:#fff;stroke-miterlimit:10;stroke-width:4px"/><line x1="1307.99" y1="1783" x2="1307.99" y2="1729" style="fill:none;stroke:#fff;stroke-miterlimit:10;stroke-width:4px"/><polygon points="1262.5 1857.27 1302.5 1857.27 1302.5 1867 1355.5 1867 1355.5 2016 1262.5 2016 1262.5 1857.27" style="fill:#ccc;stroke:#fff;stroke-miterlimit:10;stroke-width:4px"/><polygon points="1302.5 1905 1302.5 1896 1317.5 1896 1317.5 1886 1409.5 1886 1409.5 2016 1302.5 2016 1302.5 1905" style="fill:#e6e6e6;stroke:#fff;stroke-miterlimit:10;stroke-width:4px"/><polygon points="1412.5 1818.04 1447.5 1807 1493.91 1807 1502.5 1807 1502.5 2017 1412.5 2017 1412.5 1818.04" style="fill:#b3b3b3;stroke:#fff;stroke-miterlimit:10;stroke-width:4px"/><polygon points="1493.5 1791 1478.5 1791 1442.5 1801 1442.5 1807 1493.5 1807 1493.5 1791" style="fill:#999;stroke:#fff;stroke-miterlimit:10;stroke-width:4px"/><polygon points="834.5 2016 834.5 1970.81 868.5 1970.81 876.91 1962.41 919.5 1962.41 925.8 1968.7 961.5 1968.7 961.5 1953 972.5 1953 972.5 1949 988.5 1949 988.5 1954 1003.5 1954 1003.5 1972 1023.5 1972 1023.5 2017 834.5 2016" style="fill:#e6e6e6;stroke:#fff;stroke-miterlimit:10;stroke-width:4px"/><polygon points="1236.5 1905 1302.5 1905 1302.5 2016 1232.15 2016 1236.5 1905" style="fill:#e6e6e6;stroke:#fff;stroke-miterlimit:10;stroke-width:4px"/><rect x="722.5" y="1934" width="12" height="82" style="fill:#ccc;stroke:#fff;stroke-miterlimit:10;stroke-width:4px"/><polygon points="323.5 1915.78 359.5 1915.78 359.5 1903 375.5 1903 375.5 2017 323.5 2017 323.5 1915.78" style="fill:#e6e6e6;stroke:#fff;stroke-miterlimit:10;stroke-width:4px"/><polygon points="161.19 2016.5 161.19 1899 177.5 1899 177.5 1882 184.5 1882 184.5 1868 200.5 1868 200.5 1881 207.5 1881 207.5 1899 213.5 1899 213.5 2017 161.19 2016.5" style="fill:#e6e6e6;stroke:#fff;stroke-miterlimit:10;stroke-width:4px"/></g></svg>