<svg id="Layer_1" data-name="Layer 1" xmlns="http://www.w3.org/2000/svg" viewBox="0 0 521.9 521.9"><title>linkedin-icon</title><path d="M260.8,29.55C388.23,29.26,492,132.64,492.35,260.3c.4,127.92-103.29,232-231.29,232.05C133.27,492.46,29.72,389,29.55,261.05,29.38,133.26,132.7,29.83,260.8,29.55Zm129.73,340.3c.13-1.7.29-2.87.29-4,0-28.93.16-57.86-.13-86.79a113.84,113.84,0,0,0-2.43-23c-5.09-23.35-17.94-40.18-42.28-45.49-24.53-5.36-45.75-.08-61,21.58a14.11,14.11,0,0,1-1.78,1.51V212.84H231.3V369.76h52V364q0-41.88,0-83.76c0-10.34,4-18.67,12.16-24.83,15.07-11.42,35.61-4.81,40.65,13.33a74.1,74.1,0,0,1,2.29,18.92c.24,25.4.1,50.8.1,76.19v6ZM149.86,212.71V369.77H201.5V212.71Zm25.81-21.92c14.5,0,25.61-7.68,28.77-19.81,3.78-14.56-4-28.76-18.11-33.06-16.37-5-33.2,2.18-38.24,16.27C141.34,173,154.76,190.83,175.67,190.79Z"/></svg>